<?xml version="1.0" encoding="utf-8"?>
<!-- Generator: Adobe Illustrator 25.2.0, SVG Export Plug-In . SVG Version: 6.00 Build 0)  -->
<svg version="1.1" id="Layer_1" xmlns="http://www.w3.org/2000/svg" xmlns:xlink="http://www.w3.org/1999/xlink" x="0px" y="0px"
	 viewBox="0 0 369.2 123.6" enable-background="new 0 0 369.2 123.6" xml:space="preserve">
<path d="M39.7,67.1H19.2L15.5,79H1.9l18.9-57.8h19L57.4,79H43.2L39.7,67.1z M21.9,58.2h15.3l-7.5-25.8L21.9,58.2z"/>
<path d="M103.2,79H64.8V21.2h13.6v47.5h24.7V79z"/>
<path d="M183.4,67.1h-20.6L159.2,79h-13.6l18.9-57.8h19L201.1,79h-14.2L183.4,67.1z M165.6,58.2h15.3l-7.5-25.8L165.6,58.2z"/>
<path d="M257.7,21.2V79h-13.5V53.3h-22V79h-13.6V21.2h13.6V43h22V21.2H257.7z"/>
<path d="M298.5,79h-12.9V56.9l-20.5-35.7h14.9l12,23l12-23h14.3l-19.8,35.7V79z"/>
<path d="M349.6,67.1H329L325.4,79h-13.6l18.9-57.8h19L367.2,79H353L349.6,67.1z M331.7,58.2H347l-7.5-25.8L331.7,58.2z"/>
<polygon fill="#F9B200" points="150.5,0 125.9,44.3 101.4,0 4.7,0 0,11.8 93.2,11.8 119.5,56.9 119.5,79 132.4,79 132.4,56.9 
	158.2,11.8 369.2,11.8 364.5,0 "/>
<g>
	<path d="M55.5,90.8v32.8h-2.7V90.8H55.5z"/>
	<path d="M89.7,90.8v32.8h-3.3L67.5,94.2v29.4h-2.6V90.8h3.3l18.9,29.4V90.8H89.7z"/>
	<path d="M109.7,123.6H99.1V90.8h10.6c10.3,0,14.6,4.9,14.6,16.4C124.3,118.7,119.9,123.6,109.7,123.6z M101.7,93v28.4h7.8
		c8.5,0,12-4.2,12-14.2c0-10-3.6-14.2-12-14.2H101.7z"/>
	<path d="M131.8,90.8h2.7v21c0,7.4,2.8,10.4,9.6,10.4c6.8,0,9.7-3,9.7-10.4v-21h2.6v21c0,8.9-3.7,12.8-12.3,12.8
		c-8.6,0-12.3-3.8-12.3-12.8V90.8z"/>
	<path d="M187.5,114.8c0,6.8-3.5,9.7-11.8,9.7c-8.3,0-11.8-3.1-11.8-10.3h2.4c0,5.9,2.7,8.2,9.4,8.2c6.7,0,9.3-2.1,9.3-7.3
		c0-10.2-20.6-3.9-20.6-15.6c0-6.8,3.4-9.7,11.3-9.7c8,0,11.3,3.1,11.3,10.3h-2.4c0-5.8-2.6-8.2-8.9-8.2c-6.3,0-8.8,2.1-8.8,7.3
		C166.9,108.7,187.5,102.5,187.5,114.8z"/>
	<path d="M215.3,93.1h-10.5v30.5h-2.6V93.1h-10.5v-2.3h23.6V93.1z"/>
	<path d="M236.4,110.8h-11.8v12.8h-2.7V90.7h13.6c7.6,0,10.9,3.5,10.9,10.1c0,5.6-2.3,8.8-7.4,9.7l7.2,13.1h-2.9L236.4,110.8z
		 M235.4,108.7c5.9,0,8.3-2.4,8.3-7.8c0-5.5-2.4-7.9-8.3-7.9h-10.8v15.7H235.4z"/>
	<path d="M257,90.8v32.8h-2.7V90.8H257z"/>
	<path d="M285.7,115h-15.8l-3.2,8.6h-2.7l12.1-32.8h3.6l11.9,32.8h-2.8L285.7,115z M270.7,112.9h14.3l-7.1-19.5L270.7,112.9z"/>
	<path d="M318.3,123.6h-19.5V90.8h2.7v30.5h16.8V123.6z"/>
</g>
<g>
	<polygon points="330.9,90.8 330.9,123.6 339.9,90.8 	"/>
	<polygon points="348.9,90.8 340,123.6 349.1,123.6 358.1,90.8 	"/>
	<polygon points="367.2,90.8 358.2,123.6 367.2,123.6 367.2,90.8 	"/>
	<polygon fill="#F9B200" points="339.9,90.8 330.9,123.6 340,123.6 348.9,90.8 	"/>
	<polygon fill="#F9B200" points="358.1,90.8 349.1,123.6 358.2,123.6 367.2,90.8 	"/>
</g>
<g>
	<polygon points="1.9,90.8 1.9,123.6 10.9,90.8 	"/>
	<polygon points="19.9,90.8 11,123.6 20.1,123.6 29.1,90.8 	"/>
	<polygon points="38.2,90.8 29.2,123.6 38.2,123.6 38.2,90.8 	"/>
	<polygon fill="#F9B200" points="10.9,90.8 1.9,123.6 11,123.6 19.9,90.8 	"/>
	<polygon fill="#F9B200" points="29.1,90.8 20.1,123.6 29.2,123.6 38.2,90.8 	"/>
</g>
</svg>
