<svg xmlns="http://www.w3.org/2000/svg" width="77.76" height="77.704" viewBox="0 0 77.76 77.704">
  <path id="Shape_1" data-name="Shape 1" d="M1188.925,1117.992a2.277,2.277,0,0,1-2.279-2.276v-3.57a27.842,27.842,0,0,1-4.691-1.943l-2.527,2.525a2.281,2.281,0,0,1-3.222,0l-8.591-8.585a2.274,2.274,0,0,1,0-3.219l2.527-2.525a27.891,27.891,0,0,1-1.945-4.688h-3.572a2.276,2.276,0,0,1-2.278-2.277v-4.856h13.708a18.985,18.985,0,0,0,37.89,0h13.708v4.856a2.277,2.277,0,0,1-2.278,2.277H1221.8a27.791,27.791,0,0,1-1.946,4.688l2.527,2.525a2.274,2.274,0,0,1,0,3.219l-8.59,8.585a2.281,2.281,0,0,1-3.222,0l-2.527-2.525a27.862,27.862,0,0,1-4.692,1.943v3.57a2.277,2.277,0,0,1-2.278,2.276Zm-28.249-35.969a4.553,4.553,0,1,1,0-9.105h68.647a4.553,4.553,0,1,1,0,9.105Zm4.127-13.658a31.209,31.209,0,0,1,12.121-17.728l1.9,7.589a2.278,2.278,0,0,0,4.42-1.105l-2.239-8.953a30.9,30.9,0,0,1,6.982-2.527l-.238-.952a2.283,2.283,0,0,1,.891-2.409,11.16,11.16,0,0,1,12.722,0,2.283,2.283,0,0,1,.891,2.409l-.238.952a30.887,30.887,0,0,1,6.981,2.527l-2.239,8.953a2.278,2.278,0,0,0,4.42,1.105l1.9-7.589a31.2,31.2,0,0,1,12.121,17.728Z" transform="translate(-1156.12 -1040.288)" fill="#fdfdfd"/>
</svg>
