<svg xmlns="http://www.w3.org/2000/svg" width="79.953" height="79.945" viewBox="0 0 79.953 79.945">
  <path id="Shape_3" data-name="Shape 3" d="M940.432,1119.389v-9.76a1.429,1.429,0,0,0-1.045-1.376,29.283,29.283,0,0,1-6.426-2.657,1.427,1.427,0,0,0-1.714.237l-6.9,6.895-4.037-4.038,14.171-14.17a19.99,19.99,0,0,0,28.2-28.194l14.171-14.172,4.039,4.038-6.9,6.9a1.428,1.428,0,0,0-.237,1.714,29.255,29.255,0,0,1,2.657,6.426,1.427,1.427,0,0,0,1.377,1.044h9.761v14.279H977.8a1.427,1.427,0,0,0-1.377,1.047,29.191,29.191,0,0,1-2.657,6.425,1.43,1.43,0,0,0,.237,1.715l6.9,6.9-10.1,10.094-6.9-6.895a1.427,1.427,0,0,0-1.717-.237,29.276,29.276,0,0,1-6.425,2.657,1.429,1.429,0,0,0-1.046,1.376v9.76Zm5.715-2.856H949v-2.856h-2.856Zm24.653-11.883,2.018,2.02,2.02-2.02-2.02-2.018Zm11.046-23.813H984.7v-2.855h-2.856Zm-62.532-29.687a39.977,39.977,0,0,1,55.5-1l-2.017,2.016a37.125,37.125,0,0,0-52.462,52.458l-2.017,2.016A39.969,39.969,0,0,1,919.313,1051.151Zm4.022,4.022a34.274,34.274,0,0,1,47.442-.983l-11.088,11.085a1.429,1.429,0,0,0,0,2.02,17.134,17.134,0,0,1-24.232,24.23,1.428,1.428,0,0,0-2.02,0l-11.085,11.085A34.265,34.265,0,0,1,923.335,1055.174Zm-1.208,37.279-2.473,1.428a1.427,1.427,0,0,0,1.427,2.472l2.474-1.428a1.428,1.428,0,1,0-1.428-2.472Zm15.34-4.99a1.426,1.426,0,0,0,.015,2.037,14.27,14.27,0,1,0,20.182-20.18,1.427,1.427,0,1,0-2.015,2.021,11.416,11.416,0,1,1-16.145,16.143,1.425,1.425,0,0,0-1.014-.438h-.013A1.431,1.431,0,0,0,937.467,1087.463Zm-7.028-8.052a1.428,1.428,0,0,0,1.428,1.427h10.2A5.7,5.7,0,1,0,949,1073.9v-15.909a1.428,1.428,0,1,0-2.856,0V1073.9a5.712,5.712,0,0,0-4.081,4.081h-10.2A1.428,1.428,0,0,0,930.439,1079.411Zm-15.708,0a1.428,1.428,0,0,0,1.428,1.427h2.856a1.427,1.427,0,1,0,0-2.855H916.16A1.428,1.428,0,0,0,914.731,1079.411ZM919.139,1063a1.428,1.428,0,0,0,.516,1.946l2.473,1.427a1.428,1.428,0,1,0,1.428-2.472l-2.474-1.428a1.429,1.429,0,0,0-1.943.527Zm42.907-11.5-1.427,2.474a1.427,1.427,0,1,0,2.472,1.427l1.428-2.473a1.428,1.428,0,0,0-2.473-1.428Zm-30.892-.523a1.429,1.429,0,0,0-.522,1.951l1.427,2.473a1.428,1.428,0,1,0,2.473-1.427l-1.428-2.474a1.427,1.427,0,0,0-1.95-.523ZM946.147,1048v2.856a1.428,1.428,0,0,0,2.856,0V1048a1.428,1.428,0,1,0-2.856,0Zm-1.428,31.412a2.856,2.856,0,1,1,2.856,2.856A2.855,2.855,0,0,1,944.718,1079.411Z" transform="translate(-907.605 -1039.445)" fill="#fdfdfd"/>
</svg>
