<svg xmlns="http://www.w3.org/2000/svg" width="65.094" height="77.994" viewBox="0 0 65.094 77.994">
  <path id="Shape_4" data-name="Shape 4" d="M678.455,1117.674V1113.1h13.727v-6.856a17.54,17.54,0,0,1,35.079,0v6.856h4.576v4.571Zm28.217-14.476a3.05,3.05,0,1,0,3.05-3.047A3.049,3.049,0,0,0,706.672,1103.2Zm3.05-19.046c-.3,0-.591.007-.885.019l5.576-15.3-16.286-13.344-17.112,10.356a6.808,6.808,0,0,1,.337,2.121v11.427h-4.576V1084H672.2v-4.571h-4.576V1068a6.849,6.849,0,0,1,2.749-5.485v0L696,1042.472a8.388,8.388,0,0,1,11.619-.846h0l21.88,17.93a8.382,8.382,0,0,1,2.71,9.466l-7.611,20.893A22.039,22.039,0,0,0,709.722,1084.153Zm12.994-21.45a3.8,3.8,0,1,0,1.609-.359A3.785,3.785,0,0,0,722.716,1062.7Zm-20.8-18.436a3.808,3.808,0,0,0-2.121,6.71l.011.009a3.811,3.811,0,1,0,2.449-6.734C702.142,1044.252,702.03,1044.256,701.916,1044.266Z" transform="translate(-667.626 -1039.68)" fill="#fdfdfd"/>
</svg>
