<svg xmlns="http://www.w3.org/2000/svg" width="70.471" height="70.472" viewBox="0 0 70.471 70.472">
  <path id="Shape_2" data-name="Shape 2" d="M425.31,1113.529l8.26-8.259-5.839-5.839-8.263,8.26a12.416,12.416,0,0,1,2.422-14.1c6.322-6.322,13.738-2.5,14.152-2.47l29.073-29.08c-.034-.412-3.828-7.845,2.474-14.151a12.41,12.41,0,0,1,14.1-2.421l-8.26,8.262,5.839,5.838,8.26-8.26a12.4,12.4,0,0,1-2.422,14.1c-6.3,6.3-13.738,2.516-14.152,2.474l-29.073,29.078c.034.413,3.83,7.848-2.474,14.149a12.393,12.393,0,0,1-14.1,2.421Zm35.5-17.966,8.754-8.753,19.173,19.173-8.754,8.753Zm-5.863-5.864,8.753-8.753,2.933,2.931-8.754,8.753Zm-18.416-24.249h-7.756l-10.508-14.575,6.609-6.61,14.576,10.508v7.756l9.67,9.67-2.919,2.92Z" transform="translate(-418.264 -1044.265)" fill="#fdfdfd"/>
</svg>
