<svg xmlns="http://www.w3.org/2000/svg" width="66.918" height="66.922" viewBox="0 0 66.918 66.922">
  <path id="Shape_5" data-name="Shape 5" d="M225.864,1111.145l-15.458-15.437-4.107,4.1a4.313,4.313,0,0,1-6.163,0l-1.026-1.024a4.294,4.294,0,0,1,0-6.153l4.107-4.1,15.461-15.437a4.312,4.312,0,0,1,6.161,0l1.026,1.024a4.3,4.3,0,0,1,0,6.154l-4.107,4.1,15.406,15.487a4.3,4.3,0,0,1,0,6.152l-5.136,5.128a4.245,4.245,0,0,1-3.061,1.295A4.386,4.386,0,0,1,225.864,1111.145Zm-40.7-26.284-1.027-1.025a4.292,4.292,0,0,1,0-6.152l4.107-4.1-15.4-15.49a4.294,4.294,0,0,1,0-6.153l5.134-5.125a4.309,4.309,0,0,1,6.162,0l15.459,15.434,4.109-4.1a4.31,4.31,0,0,1,6.16,0l1.026,1.025a4.292,4.292,0,0,1,0,6.153l-4.107,4.1-11.352,11.332-4.107,4.1a4.246,4.246,0,0,1-3.061,1.295A4.381,4.381,0,0,1,185.163,1084.862Z" transform="translate(-171.542 -1045.519)" fill="#fdfdfd"/>
</svg>
